<svg id="svg" version="1.1" xmlns="http://www.w3.org/2000/svg" xmlns:xlink="http://www.w3.org/1999/xlink" width="400" height="59.310344827586206" viewBox="0, 0, 400,59.310344827586206"><g id="svgg"><path id="path0" d="M196.948 2.042 C 196.812 2.431,196.611 3.087,196.501 3.500 C 196.391 3.913,196.207 4.475,196.092 4.750 C 195.552 6.041,195.920 8.484,196.865 9.878 C 197.588 10.945,197.581 11.089,196.793 11.220 C 195.471 11.438,195.276 11.510,192.667 12.723 C 191.699 13.173,191.603 13.384,191.996 14.191 C 192.696 15.623,193.029 16.091,193.689 16.562 C 194.057 16.825,194.441 17.220,194.541 17.441 C 194.642 17.661,194.895 17.884,195.105 17.937 C 195.315 17.990,195.574 18.138,195.680 18.266 C 195.787 18.395,196.081 18.500,196.333 18.500 C 196.950 18.500,197.245 18.901,197.189 19.666 C 197.108 20.791,198.711 21.257,200.101 20.512 C 200.678 20.203,201.167 20.206,201.167 20.518 C 201.167 20.600,201.317 20.667,201.500 20.667 C 201.683 20.667,201.833 20.598,201.833 20.514 C 201.833 20.430,202.012 20.299,202.230 20.222 C 202.647 20.076,203.589 19.357,204.787 18.271 C 205.550 17.579,205.921 17.613,206.032 18.385 C 206.060 18.584,206.205 18.770,206.353 18.798 C 206.696 18.863,206.877 18.232,206.630 17.836 C 206.184 17.122,206.570 16.956,208.699 16.942 C 209.038 16.940,209.277 16.877,209.231 16.802 C 209.185 16.728,209.262 16.667,209.402 16.667 C 209.791 16.667,210.902 16.043,211.336 15.580 C 211.550 15.353,211.819 15.167,211.934 15.167 C 212.224 15.167,212.833 14.356,212.833 13.969 C 212.833 13.794,212.948 13.428,213.088 13.157 C 213.497 12.366,213.078 11.130,212.350 10.981 C 211.624 10.833,211.584 10.762,211.877 10.131 C 212.328 9.160,212.383 8.549,212.074 7.960 C 211.917 7.661,211.731 7.026,211.660 6.549 C 211.428 4.991,211.015 4.285,210.420 4.429 C 210.143 4.497,209.692 4.547,209.417 4.541 C 207.884 4.507,206.499 5.391,205.740 6.889 C 205.165 8.025,204.661 7.755,204.597 6.278 C 204.538 4.905,204.127 4.456,201.750 3.164 C 201.567 3.065,201.079 2.800,200.667 2.577 C 200.254 2.353,199.699 2.169,199.432 2.168 C 199.166 2.167,198.702 1.979,198.402 1.750 C 197.589 1.130,197.241 1.200,196.948 2.042 M217.758 5.654 C 217.706 5.738,217.439 5.857,217.166 5.917 C 215.584 6.264,215.118 9.667,216.652 9.667 C 216.830 9.667,217.089 9.779,217.226 9.917 C 217.364 10.054,217.658 10.167,217.879 10.167 C 218.942 10.167,220.167 11.340,220.167 12.359 C 220.167 13.673,218.827 15.276,216.940 16.221 C 215.869 16.758,215.710 17.253,216.350 18.067 C 216.782 18.616,216.856 18.601,219.248 17.475 C 220.897 16.699,222.803 14.891,223.264 13.667 C 223.420 13.254,223.604 12.842,223.675 12.750 C 223.865 12.502,223.828 9.846,223.627 9.348 C 223.116 8.082,222.911 7.752,222.221 7.081 C 221.806 6.678,221.118 6.220,220.692 6.063 C 220.266 5.907,219.845 5.716,219.758 5.639 C 219.543 5.450,217.876 5.462,217.758 5.654 M343.560 6.120 C 343.481 6.239,342.967 6.416,342.417 6.514 C 341.867 6.612,341.260 6.793,341.068 6.916 C 340.612 7.209,339.037 7.495,338.478 7.387 C 338.237 7.340,337.988 7.384,337.926 7.484 C 337.864 7.585,337.626 7.667,337.396 7.667 C 335.674 7.667,335.510 9.315,337.205 9.582 C 340.263 10.063,340.309 10.160,340.341 16.227 C 340.366 20.861,340.376 20.820,339.302 20.495 C 338.411 20.225,335.058 20.088,334.593 20.303 C 334.404 20.390,333.650 20.592,332.917 20.752 C 331.106 21.147,328.167 22.342,328.167 22.682 C 328.167 22.753,328.008 22.861,327.815 22.922 C 327.131 23.140,323.667 26.483,323.667 26.926 C 323.667 27.045,323.573 27.242,323.458 27.363 C 321.872 29.041,321.361 34.537,322.511 37.570 C 323.342 39.764,326.116 43.207,327.357 43.586 C 327.573 43.652,327.862 43.799,328.000 43.914 C 328.137 44.028,328.625 44.257,329.083 44.423 C 329.542 44.588,330.020 44.803,330.147 44.900 C 330.536 45.199,333.996 45.121,334.583 44.800 C 334.858 44.650,335.383 44.414,335.750 44.277 C 336.117 44.139,337.167 43.609,338.083 43.099 C 340.260 41.886,340.607 41.963,340.387 43.605 C 340.323 44.086,340.380 44.353,340.608 44.629 L 340.917 45.004 342.500 44.572 C 343.654 44.257,344.543 44.132,345.778 44.112 C 346.710 44.096,347.441 44.052,347.403 44.015 C 347.285 43.896,348.684 43.333,349.098 43.333 C 349.381 43.333,349.523 43.215,349.598 42.917 C 349.656 42.688,349.788 42.499,349.893 42.497 C 349.998 42.496,349.971 42.422,349.833 42.333 C 349.621 42.196,349.629 42.171,349.885 42.169 C 350.051 42.168,350.139 42.090,350.082 41.997 C 350.024 41.904,349.907 41.871,349.822 41.924 C 349.736 41.977,349.593 41.828,349.504 41.593 C 349.363 41.223,349.243 41.167,348.596 41.167 C 347.586 41.167,346.005 40.738,345.755 40.396 C 345.601 40.185,345.522 36.478,345.426 25.017 C 345.286 8.161,345.256 6.902,344.985 6.391 C 344.761 5.969,343.784 5.783,343.560 6.120 M23.492 8.397 C 23.327 8.562,21.838 8.689,19.481 8.740 C 17.609 8.780,16.963 8.855,16.532 9.079 C 16.160 9.274,15.801 9.333,15.423 9.262 C 15.116 9.205,14.839 9.216,14.807 9.287 C 14.701 9.528,13.701 10.000,13.298 10.000 C 13.077 10.000,12.751 10.110,12.574 10.245 C 12.396 10.379,12.090 10.492,11.895 10.495 C 11.700 10.498,11.447 10.612,11.333 10.750 C 11.219 10.887,10.994 11.000,10.833 11.000 C 10.672 11.000,10.447 11.113,10.333 11.250 C 10.219 11.388,10.056 11.500,9.972 11.500 C 9.726 11.500,8.037 12.623,6.812 13.600 C 4.473 15.467,1.572 19.865,1.400 21.806 C 1.373 22.112,1.269 22.460,1.169 22.581 C 1.069 22.701,0.961 23.358,0.930 24.041 C 0.898 24.725,0.788 25.440,0.686 25.631 C 0.442 26.086,0.447 27.214,0.695 27.461 C 0.808 27.575,0.904 28.282,0.924 29.161 C 0.944 29.989,1.037 30.761,1.131 30.875 C 1.226 30.990,1.357 31.383,1.423 31.750 C 1.489 32.117,1.600 32.492,1.668 32.583 C 1.736 32.675,1.848 32.938,1.916 33.167 C 2.030 33.549,2.998 35.579,3.614 36.728 C 4.391 38.176,9.242 42.333,10.154 42.333 C 10.253 42.333,10.333 42.407,10.333 42.497 C 10.333 42.587,10.535 42.711,10.781 42.773 C 11.027 42.834,11.420 42.985,11.656 43.108 C 11.891 43.231,12.248 43.332,12.448 43.332 C 12.649 43.333,12.857 43.403,12.910 43.489 C 12.963 43.574,13.436 43.733,13.961 43.841 C 14.487 43.949,15.104 44.132,15.333 44.246 C 15.563 44.360,16.762 44.504,18.000 44.565 C 19.237 44.627,20.550 44.748,20.917 44.834 C 21.958 45.081,24.365 45.033,25.167 44.750 C 25.556 44.612,26.395 44.500,27.029 44.500 C 27.719 44.500,28.374 44.401,28.658 44.255 C 28.919 44.120,29.534 43.974,30.024 43.932 C 30.515 43.889,31.274 43.744,31.712 43.609 C 32.411 43.393,32.536 43.393,32.752 43.609 C 33.033 43.890,33.260 43.789,34.160 42.977 C 34.540 42.635,34.768 37.958,34.615 33.646 C 34.504 30.522,34.577 30.309,35.841 30.057 C 38.088 29.611,39.242 27.780,37.468 27.477 C 35.865 27.203,23.965 27.551,23.658 27.881 C 23.044 28.540,23.322 29.500,24.127 29.500 C 24.657 29.500,26.220 30.013,26.372 30.237 C 26.455 30.358,26.496 30.349,26.497 30.208 C 26.504 29.688,27.772 30.135,28.500 30.914 L 28.917 31.360 28.968 35.388 C 29.025 39.861,28.981 40.329,28.451 40.883 C 27.961 41.395,26.895 42.000,26.482 42.000 C 26.300 42.000,25.910 42.125,25.617 42.278 C 24.800 42.703,19.673 42.717,18.887 42.296 C 18.583 42.133,18.087 42.000,17.784 42.000 C 17.481 42.000,17.162 41.934,17.075 41.853 C 16.988 41.773,16.617 41.613,16.250 41.497 C 14.389 40.912,10.333 37.852,10.333 37.033 C 10.333 36.903,10.184 36.695,9.517 35.897 C 9.316 35.656,8.667 34.231,8.667 34.030 C 8.667 33.944,8.554 33.781,8.417 33.667 C 8.279 33.553,8.167 33.317,8.167 33.144 C 8.167 32.971,8.095 32.699,8.007 32.539 C 7.919 32.380,7.763 31.875,7.660 31.417 C 7.558 30.958,7.390 30.226,7.287 29.788 C 7.153 29.221,7.150 28.805,7.275 28.336 C 7.376 27.958,7.387 27.657,7.301 27.628 C 6.817 27.467,6.977 24.170,7.469 24.162 C 7.726 24.157,7.725 24.142,7.458 23.987 C 6.986 23.711,7.278 21.178,7.986 19.417 C 9.226 16.331,11.832 13.296,14.000 12.411 C 14.137 12.355,14.385 12.237,14.550 12.148 C 15.276 11.758,17.173 11.167,17.698 11.167 C 18.014 11.167,18.671 11.049,19.157 10.904 C 20.396 10.536,23.233 10.770,24.583 11.351 C 24.767 11.429,25.160 11.484,25.458 11.472 C 25.756 11.459,26.319 11.582,26.708 11.743 C 27.098 11.905,27.716 12.160,28.082 12.310 C 28.448 12.461,28.864 12.696,29.007 12.833 C 29.149 12.971,29.562 13.347,29.925 13.669 C 30.553 14.227,31.333 15.200,31.333 15.426 C 31.333 15.484,31.483 15.741,31.665 15.998 C 31.847 16.254,32.021 16.622,32.050 16.817 C 32.080 17.012,32.194 17.260,32.302 17.369 C 32.411 17.478,32.500 17.801,32.500 18.087 C 32.500 18.994,33.134 19.381,34.087 19.056 C 35.090 18.715,35.234 18.340,34.819 17.155 C 34.558 16.409,34.519 15.971,34.600 14.667 C 34.678 13.408,34.641 12.941,34.421 12.392 C 34.268 12.011,34.092 11.340,34.029 10.899 C 33.924 10.163,33.858 10.071,33.207 9.758 C 32.818 9.570,32.500 9.330,32.500 9.225 C 32.500 9.096,32.209 9.052,31.625 9.090 C 30.130 9.190,29.769 9.163,29.410 8.927 C 29.172 8.772,28.297 8.675,26.656 8.622 C 25.333 8.580,24.098 8.493,23.912 8.430 C 23.727 8.366,23.537 8.351,23.492 8.397 M46.333 8.822 C 46.333 8.908,46.196 9.021,46.027 9.075 C 45.514 9.238,44.500 10.238,44.495 10.588 C 44.492 10.769,44.387 11.051,44.262 11.216 C 44.024 11.530,44.078 11.959,44.445 12.662 C 44.566 12.894,44.665 13.172,44.666 13.281 C 44.672 14.522,48.107 15.261,49.375 14.293 C 51.834 12.417,50.534 8.667,47.424 8.667 C 46.824 8.667,46.333 8.737,46.333 8.822 M259.506 9.865 C 259.152 10.245,259.066 10.916,259.320 11.318 C 259.414 11.466,259.915 11.589,260.693 11.653 C 262.237 11.781,263.442 12.347,263.914 13.167 C 264.311 13.855,264.539 38.456,264.165 40.256 C 263.884 41.613,262.613 42.474,260.833 42.513 C 259.110 42.551,258.434 43.063,258.814 44.042 L 258.992 44.500 271.899 44.500 C 278.998 44.500,284.930 44.452,285.082 44.394 C 285.382 44.279,286.062 42.872,286.250 41.977 C 286.397 41.274,287.472 37.867,287.691 37.408 C 288.032 36.694,287.799 35.440,287.292 35.263 C 286.452 34.969,285.984 35.296,285.250 36.690 C 284.883 37.386,284.377 38.223,284.125 38.550 C 283.873 38.877,283.667 39.209,283.667 39.289 C 283.667 39.518,281.966 41.148,281.417 41.445 C 279.764 42.338,271.375 42.270,270.308 41.356 C 270.102 41.180,270.000 40.867,270.000 40.413 C 270.000 40.039,269.924 39.657,269.830 39.564 C 269.659 39.392,269.702 15.596,269.877 13.983 C 270.034 12.530,271.469 11.566,273.356 11.648 C 274.519 11.698,274.941 11.118,274.480 10.105 C 274.207 9.506,274.193 9.505,266.715 9.502 C 259.862 9.500,259.846 9.501,259.506 9.865 M206.562 19.412 C 206.502 19.568,206.436 19.858,206.414 20.056 C 206.393 20.255,206.366 20.507,206.355 20.617 C 206.343 20.728,206.052 20.863,205.708 20.918 C 205.365 20.973,204.837 21.127,204.536 21.259 C 204.235 21.392,203.644 21.500,203.222 21.500 C 202.320 21.500,201.333 22.030,201.333 22.514 C 201.333 22.927,201.908 23.500,202.323 23.500 C 202.501 23.500,202.693 23.575,202.750 23.667 C 202.807 23.758,202.968 23.833,203.110 23.833 C 204.761 23.833,204.819 24.140,204.830 32.926 C 204.841 41.718,204.785 42.000,203.027 42.000 C 201.581 42.000,200.806 42.629,201.169 43.506 L 201.370 43.992 207.126 44.037 C 213.330 44.087,213.838 44.031,213.828 43.300 C 213.817 42.524,213.257 42.126,212.015 42.012 C 209.643 41.795,209.759 42.379,209.702 30.390 C 209.648 19.084,209.742 19.816,208.393 20.155 C 207.966 20.263,207.566 20.290,207.504 20.217 C 207.441 20.143,207.229 19.868,207.031 19.605 C 206.723 19.196,206.656 19.168,206.562 19.412 M67.583 19.941 C 66.942 20.176,66.154 20.426,65.833 20.495 C 65.182 20.636,62.904 21.796,62.143 22.375 C 60.748 23.435,58.833 25.478,58.833 25.907 C 58.833 25.962,58.658 26.286,58.444 26.628 C 57.066 28.829,56.541 34.095,57.486 36.250 C 59.297 40.384,61.424 42.619,64.638 43.765 C 65.341 44.015,65.988 44.283,66.075 44.360 C 66.162 44.437,66.612 44.502,67.075 44.504 C 67.538 44.506,68.181 44.569,68.504 44.645 C 69.246 44.817,72.586 44.536,73.250 44.244 C 73.525 44.124,74.162 43.861,74.667 43.661 C 76.665 42.867,78.679 41.268,80.134 39.322 C 80.825 38.397,81.731 36.833,81.575 36.833 C 81.447 36.833,82.142 35.535,82.334 35.416 C 82.428 35.358,82.451 35.223,82.386 35.116 C 82.320 35.010,82.256 33.533,82.243 31.836 C 82.223 28.987,82.194 28.705,81.861 28.167 C 81.663 27.846,81.501 27.386,81.501 27.145 C 81.500 26.905,81.387 26.614,81.250 26.500 C 81.112 26.386,81.000 26.152,81.000 25.980 C 81.000 25.807,80.923 25.667,80.828 25.667 C 80.734 25.667,80.608 25.535,80.548 25.375 C 80.204 24.442,77.478 21.924,76.150 21.312 C 75.747 21.126,75.304 20.902,75.167 20.815 C 75.029 20.728,74.785 20.613,74.625 20.559 C 74.465 20.505,74.333 20.405,74.333 20.337 C 74.333 20.269,74.164 20.245,73.957 20.285 C 73.751 20.324,72.991 20.164,72.270 19.928 C 70.530 19.360,69.154 19.364,67.583 19.941 M49.000 19.842 C 49.000 20.035,48.026 20.379,47.764 20.278 C 47.631 20.227,47.498 20.237,47.469 20.301 C 47.343 20.580,46.313 21.000,45.755 21.000 C 45.419 21.000,44.981 21.094,44.781 21.208 C 44.580 21.323,43.989 21.419,43.467 21.422 C 42.398 21.427,41.667 21.906,41.667 22.600 C 41.667 23.048,42.076 23.500,42.480 23.500 C 42.639 23.500,42.915 23.610,43.093 23.745 C 43.271 23.879,43.623 23.992,43.875 23.995 C 44.544 24.002,45.072 24.602,45.026 25.299 C 45.005 25.611,45.070 25.967,45.171 26.088 C 45.300 26.243,45.338 28.486,45.302 33.651 L 45.250 40.993 44.816 41.427 C 44.517 41.726,44.155 41.881,43.649 41.929 C 41.690 42.111,40.667 43.041,41.625 43.768 C 42.028 44.074,53.662 44.104,53.967 43.800 C 54.700 43.067,53.793 42.000,52.436 42.000 C 50.186 41.999,50.182 41.979,50.204 29.653 C 50.213 24.466,50.172 20.144,50.112 20.047 C 49.988 19.846,49.000 19.664,49.000 19.842 M123.083 19.868 C 122.808 19.964,122.039 20.296,121.375 20.605 C 120.710 20.914,120.091 21.167,120.000 21.167 C 119.526 21.167,115.378 23.609,113.965 24.720 C 112.444 25.915,114.802 28.917,116.595 28.067 C 117.148 27.804,118.000 26.408,118.000 25.764 C 118.000 24.334,120.782 21.742,121.700 22.316 C 121.863 22.417,122.245 22.500,122.549 22.500 C 122.854 22.500,123.249 22.610,123.426 22.745 C 123.604 22.879,123.862 22.992,124.000 22.995 C 124.295 23.001,125.833 24.454,125.834 24.728 C 125.835 24.832,125.935 25.108,126.058 25.343 C 126.900 26.957,127.087 28.877,126.458 29.451 C 125.879 29.980,122.510 31.373,121.112 31.662 C 120.760 31.734,120.389 31.877,120.287 31.980 C 120.184 32.083,119.904 32.167,119.665 32.167 C 119.426 32.167,119.085 32.277,118.907 32.411 C 118.729 32.546,118.408 32.658,118.193 32.661 C 117.562 32.670,114.862 34.151,114.424 34.729 C 113.225 36.313,112.799 37.945,113.257 39.195 C 113.403 39.592,113.567 40.067,113.621 40.250 C 114.600 43.553,119.346 45.505,122.417 43.869 C 123.942 43.056,124.686 42.622,125.414 42.122 C 126.254 41.545,127.094 41.507,127.262 42.038 C 127.592 43.078,129.044 44.245,130.228 44.422 C 130.895 44.522,134.295 43.101,135.375 42.271 C 136.337 41.532,135.264 40.101,134.248 40.767 C 133.249 41.421,132.099 40.983,131.500 39.720 C 131.061 38.795,131.023 32.741,131.420 27.064 C 131.474 26.292,131.414 25.885,131.173 25.386 C 130.998 25.024,130.805 24.529,130.744 24.287 C 130.684 24.045,130.529 23.760,130.400 23.653 C 130.272 23.546,130.167 23.400,130.167 23.327 C 130.167 23.203,129.865 22.814,129.083 21.928 C 128.411 21.167,126.690 20.289,125.417 20.059 C 125.142 20.009,124.842 19.916,124.750 19.851 C 124.490 19.667,123.634 19.676,123.083 19.868 M153.930 19.931 C 153.094 20.159,149.333 21.982,149.333 22.160 C 149.333 22.214,149.052 22.402,148.708 22.579 C 148.365 22.756,147.971 22.987,147.833 23.093 C 146.921 23.798,146.726 23.558,146.679 21.674 C 146.634 19.868,146.332 19.584,145.167 20.250 C 144.938 20.381,144.558 20.491,144.324 20.494 C 144.089 20.497,143.751 20.610,143.574 20.745 C 143.396 20.879,142.978 20.992,142.645 20.995 C 142.313 20.998,141.771 21.112,141.442 21.250 C 141.113 21.387,140.521 21.500,140.126 21.500 C 137.808 21.500,138.186 23.535,140.583 23.960 C 141.118 24.055,141.609 24.510,141.851 25.136 C 142.145 25.897,142.036 40.247,141.731 40.886 C 141.375 41.632,140.797 41.946,139.588 42.052 C 138.238 42.169,137.614 42.921,138.208 43.715 C 138.571 44.199,149.745 44.163,150.232 43.676 C 150.911 42.997,149.928 42.007,148.571 42.002 C 146.916 41.996,146.798 41.448,146.707 33.312 L 146.631 26.541 147.225 25.883 C 147.886 25.151,149.575 24.083,150.336 23.916 C 150.607 23.857,150.872 23.738,150.925 23.654 C 151.124 23.331,154.674 23.474,155.420 23.835 C 156.767 24.487,157.667 25.965,157.667 27.525 C 157.667 28.081,157.740 28.500,157.838 28.500 C 158.043 28.500,157.947 38.668,157.726 40.316 C 157.554 41.604,157.202 41.929,155.837 42.061 C 154.772 42.164,154.461 42.468,154.534 43.333 L 154.583 43.917 160.220 44.000 C 166.310 44.090,166.333 44.087,166.333 43.214 C 166.333 42.533,165.792 42.121,164.790 42.038 C 164.032 41.975,163.770 41.869,163.387 41.470 L 162.917 40.978 162.870 34.031 C 162.824 27.140,162.660 24.931,162.157 24.425 C 162.071 24.338,162.000 24.143,162.000 23.992 C 162.000 23.841,161.869 23.556,161.708 23.357 C 161.548 23.159,161.192 22.709,160.917 22.357 C 159.400 20.417,156.212 19.310,153.930 19.931 M185.648 19.855 C 185.521 19.919,184.892 20.137,184.250 20.339 C 183.608 20.540,182.858 20.871,182.583 21.073 C 182.308 21.276,181.971 21.493,181.833 21.557 C 181.696 21.620,181.246 21.891,180.833 22.159 C 178.350 23.770,178.396 23.773,178.377 22.025 C 178.353 19.812,178.136 19.682,175.825 20.497 C 175.051 20.770,174.192 20.998,173.917 21.003 C 173.642 21.008,173.229 21.119,173.000 21.250 C 172.771 21.381,172.269 21.491,171.886 21.494 C 169.804 21.512,169.340 22.955,171.181 23.686 C 171.723 23.901,172.167 24.126,172.167 24.185 C 172.167 24.243,172.385 24.335,172.652 24.389 C 173.459 24.550,173.546 25.271,173.620 32.385 C 173.709 41.012,173.481 42.000,171.402 42.000 C 170.240 42.000,169.697 42.261,169.522 42.903 C 169.326 43.623,169.563 43.999,170.214 44.002 C 179.712 44.046,181.554 44.003,181.857 43.729 C 182.612 43.045,181.891 42.218,180.407 42.067 C 179.617 41.987,179.315 41.868,178.917 41.480 L 178.417 40.994 178.366 33.515 L 178.315 26.037 179.033 25.460 C 179.720 24.907,180.692 24.363,182.047 23.774 C 182.898 23.404,186.116 23.384,186.593 23.745 C 186.771 23.879,187.031 23.992,187.172 23.995 C 187.479 24.001,188.337 24.892,188.703 25.583 C 189.444 26.984,189.500 27.583,189.500 34.043 C 189.500 41.654,189.442 41.867,187.330 42.045 C 186.308 42.132,185.667 42.570,185.667 43.182 C 185.667 44.054,185.976 44.092,192.167 44.000 L 197.750 43.917 197.805 43.525 C 197.951 42.499,197.347 42.004,195.949 42.001 C 194.352 41.998,194.159 40.975,194.170 32.591 C 194.179 26.457,194.145 25.442,193.923 25.126 C 193.782 24.924,193.667 24.593,193.667 24.389 C 193.667 24.186,193.591 23.973,193.498 23.915 C 193.405 23.858,193.183 23.525,193.005 23.176 C 192.268 21.732,189.733 20.000,188.355 20.000 C 188.190 20.000,187.999 19.944,187.931 19.875 C 187.771 19.715,185.954 19.699,185.648 19.855 M230.333 20.051 C 229.737 20.222,228.987 20.420,228.667 20.492 C 226.913 20.881,224.608 23.003,224.095 24.700 C 223.704 25.995,223.646 29.000,224.012 29.000 C 224.075 29.000,224.212 29.206,224.317 29.458 C 224.535 29.983,225.528 31.064,226.550 31.891 C 227.216 32.429,228.246 32.987,231.833 34.751 C 233.327 35.486,234.833 36.664,234.833 37.098 C 234.833 37.205,234.941 37.382,235.073 37.492 C 235.417 37.777,235.420 40.311,235.076 40.443 C 234.943 40.494,234.833 40.661,234.833 40.814 C 234.833 41.264,234.358 41.814,233.662 42.169 C 232.977 42.518,232.000 42.615,232.000 42.333 C 232.000 42.242,231.775 42.167,231.500 42.167 C 231.225 42.167,231.000 42.242,231.000 42.333 C 231.000 42.545,229.922 42.551,229.539 42.341 C 229.380 42.254,228.950 42.050,228.583 41.888 C 227.433 41.379,226.447 40.219,225.494 38.253 L 224.625 36.462 223.959 36.551 C 223.593 36.600,223.211 36.722,223.111 36.822 C 222.883 37.050,222.946 38.921,223.198 39.391 C 223.301 39.584,223.437 40.277,223.501 40.932 C 223.693 42.886,224.010 43.342,225.500 43.807 C 226.188 44.021,226.900 44.261,227.083 44.339 C 227.267 44.417,227.661 44.529,227.960 44.587 C 228.259 44.646,228.472 44.744,228.434 44.805 C 228.338 44.960,232.674 44.928,233.083 44.770 C 233.267 44.700,233.553 44.569,233.719 44.480 C 233.886 44.390,234.614 44.099,235.338 43.832 C 236.061 43.565,236.796 43.212,236.969 43.048 C 237.143 42.884,237.527 42.563,237.822 42.333 C 238.965 41.446,239.145 41.198,239.900 39.475 C 240.393 38.349,240.269 35.907,239.655 34.670 C 238.705 32.754,237.428 31.876,231.917 29.349 C 231.275 29.055,230.637 28.743,230.500 28.657 C 230.362 28.570,230.100 28.432,229.917 28.351 C 227.579 27.308,227.525 23.432,229.833 22.301 C 231.022 21.718,233.333 21.748,233.333 22.346 C 233.333 22.431,233.547 22.500,233.807 22.500 C 234.376 22.500,236.236 24.374,236.615 25.330 C 237.231 26.882,237.527 27.127,238.425 26.831 C 238.837 26.695,239.004 26.538,239.014 26.279 C 239.044 25.486,238.970 23.951,238.886 23.610 C 238.816 23.326,238.702 21.819,238.671 20.764 C 238.669 20.680,238.618 20.660,238.559 20.719 C 238.499 20.779,238.319 20.676,238.159 20.491 C 237.999 20.306,237.804 20.173,237.725 20.194 C 237.398 20.282,234.497 19.963,234.414 19.830 C 234.256 19.573,231.470 19.724,230.333 20.051 M83.976 20.398 C 83.075 21.365,83.628 22.769,84.833 22.578 C 85.219 22.516,85.530 22.571,85.750 22.737 C 85.933 22.876,86.202 22.992,86.346 22.995 C 86.918 23.006,88.662 25.910,88.732 26.967 C 88.742 27.123,88.919 27.487,89.125 27.776 C 89.331 28.065,89.500 28.391,89.500 28.500 C 89.500 28.609,89.599 28.898,89.721 29.141 C 89.843 29.384,90.068 29.833,90.221 30.139 C 90.374 30.444,90.500 30.823,90.500 30.980 C 90.500 31.138,90.588 31.354,90.695 31.461 C 90.902 31.669,91.299 32.646,91.455 33.333 C 91.507 33.563,91.601 33.787,91.664 33.833 C 91.788 33.924,92.722 35.749,93.094 36.627 C 93.500 37.586,93.818 38.324,94.064 38.877 C 94.196 39.174,94.580 40.129,94.919 41.000 C 95.257 41.871,95.676 42.892,95.850 43.268 C 96.024 43.645,96.167 44.037,96.167 44.140 C 96.167 44.387,96.799 44.536,97.568 44.470 C 98.225 44.413,98.433 44.156,99.093 42.583 C 99.247 42.217,99.556 41.504,99.779 41.000 C 100.002 40.496,100.300 39.821,100.440 39.500 C 100.581 39.179,100.802 38.704,100.931 38.445 C 101.061 38.185,101.167 37.827,101.167 37.648 C 101.167 37.469,101.279 37.280,101.417 37.227 C 101.554 37.174,101.667 37.033,101.667 36.912 C 101.667 36.562,102.231 35.669,102.453 35.668 C 102.565 35.667,102.614 35.557,102.563 35.423 C 102.511 35.289,102.589 34.940,102.735 34.647 C 102.881 34.355,103.000 33.986,103.000 33.828 C 103.000 33.670,103.112 33.447,103.250 33.333 C 103.388 33.219,103.500 32.999,103.500 32.845 C 103.500 32.690,103.610 32.418,103.745 32.240 C 103.879 32.062,103.992 31.756,103.995 31.559 C 103.998 31.363,104.112 31.159,104.250 31.106 C 104.388 31.054,104.500 30.878,104.500 30.715 C 104.500 30.553,104.767 29.856,105.094 29.168 C 105.989 27.281,106.134 26.950,106.250 26.542 C 106.308 26.335,106.426 26.167,106.511 26.167 C 106.597 26.167,106.667 25.984,106.667 25.760 C 106.667 25.536,106.742 25.307,106.834 25.250 C 106.926 25.193,107.150 24.832,107.331 24.448 C 107.931 23.182,109.246 22.221,110.090 22.433 C 110.698 22.586,111.393 21.928,111.245 21.339 C 111.040 20.520,110.962 20.500,108.058 20.500 C 106.212 20.500,105.148 20.430,104.786 20.285 C 104.128 20.021,101.458 20.044,101.367 20.314 C 101.333 20.417,101.211 20.500,101.096 20.500 C 100.798 20.500,100.504 21.230,100.622 21.680 C 100.819 22.434,101.187 22.684,101.936 22.572 C 103.231 22.378,104.241 23.369,103.822 24.423 C 103.714 24.695,103.605 25.139,103.580 25.410 C 103.554 25.681,103.395 26.019,103.225 26.160 C 103.036 26.317,102.936 26.584,102.967 26.848 C 102.995 27.087,102.902 27.374,102.758 27.493 C 102.616 27.611,102.500 27.880,102.500 28.092 C 102.500 28.303,102.388 28.589,102.250 28.726 C 102.112 28.864,102.000 29.139,102.000 29.337 C 102.000 29.536,101.895 29.898,101.766 30.141 C 101.637 30.384,101.253 31.258,100.913 32.083 C 100.572 32.908,100.152 33.856,99.980 34.189 C 99.808 34.523,99.667 34.908,99.667 35.047 C 99.667 35.185,99.555 35.340,99.419 35.393 C 99.284 35.445,99.211 35.588,99.258 35.711 C 99.352 35.956,98.929 37.088,98.687 37.237 C 98.457 37.380,98.000 36.573,98.000 36.024 C 98.000 35.744,97.893 35.495,97.750 35.440 C 97.612 35.387,97.500 35.245,97.500 35.124 C 97.500 35.003,97.237 34.272,96.917 33.500 C 96.596 32.728,96.333 32.009,96.333 31.902 C 96.333 31.795,96.221 31.614,96.083 31.500 C 95.946 31.386,95.833 31.129,95.833 30.928 C 95.833 30.728,95.723 30.418,95.589 30.240 C 95.454 30.062,95.342 29.718,95.339 29.476 C 95.336 29.234,95.228 28.995,95.099 28.946 C 94.970 28.896,94.811 28.610,94.745 28.308 C 94.678 28.007,94.567 27.646,94.497 27.505 C 93.944 26.392,93.499 25.304,93.495 25.052 C 93.492 24.886,93.379 24.604,93.245 24.426 C 92.631 23.615,93.371 22.423,94.407 22.553 C 95.035 22.632,95.827 22.258,95.852 21.871 C 95.962 20.155,96.093 20.192,89.734 20.134 C 84.558 20.086,84.253 20.100,83.976 20.398 M306.306 20.083 C 306.268 20.121,305.546 20.165,304.702 20.180 C 303.857 20.195,303.167 20.267,303.167 20.339 C 303.167 20.412,302.848 20.524,302.458 20.589 C 301.478 20.752,299.553 21.462,298.800 21.938 C 298.455 22.155,298.135 22.333,298.089 22.333 C 297.315 22.333,294.439 25.497,293.460 27.424 C 292.725 28.871,291.993 32.423,292.190 33.583 C 292.253 33.950,292.326 34.587,292.353 35.000 C 292.380 35.412,292.498 35.938,292.616 36.167 C 292.735 36.396,292.832 36.682,292.832 36.802 C 292.838 37.997,296.344 42.833,297.205 42.833 C 297.367 42.833,297.500 42.896,297.500 42.972 C 297.500 43.122,299.493 44.167,299.780 44.167 C 299.878 44.167,300.298 44.317,300.714 44.501 C 301.130 44.685,301.834 44.874,302.277 44.919 C 302.721 44.965,303.533 45.060,304.083 45.130 C 304.633 45.200,305.458 45.202,305.917 45.135 C 306.375 45.068,307.012 44.981,307.333 44.942 C 308.117 44.846,311.017 43.849,311.346 43.562 C 311.491 43.436,311.683 43.333,311.773 43.333 C 312.254 43.333,315.289 40.027,315.903 38.833 C 316.257 38.146,316.594 37.546,316.651 37.500 C 317.249 37.023,317.612 29.856,317.090 28.846 C 316.949 28.573,316.833 28.211,316.833 28.042 C 316.833 27.872,316.744 27.644,316.636 27.536 C 316.527 27.427,316.412 27.171,316.381 26.968 C 316.350 26.764,316.264 26.557,316.190 26.507 C 316.115 26.457,315.790 26.004,315.466 25.500 C 314.910 24.633,313.132 22.818,312.414 22.384 C 311.020 21.541,309.182 20.805,307.922 20.586 C 307.559 20.523,307.062 20.368,306.819 20.242 C 306.575 20.116,306.344 20.045,306.306 20.083 M359.958 20.115 C 359.798 20.157,359.667 20.261,359.667 20.346 C 359.667 20.430,359.419 20.500,359.115 20.500 C 358.812 20.500,358.418 20.610,358.240 20.745 C 358.062 20.879,357.804 20.992,357.667 20.995 C 357.529 20.998,357.199 21.188,356.932 21.417 C 356.666 21.646,356.387 21.833,356.313 21.833 C 356.239 21.833,355.948 22.058,355.667 22.333 C 355.385 22.608,355.100 22.833,355.032 22.833 C 354.733 22.833,353.000 25.168,353.000 25.570 C 353.000 25.693,352.894 25.881,352.764 25.988 C 352.197 26.459,352.202 31.896,352.770 32.114 C 352.897 32.163,353.000 32.384,353.000 32.606 C 353.000 32.829,353.113 33.054,353.250 33.106 C 353.387 33.159,353.500 33.297,353.500 33.413 C 353.500 33.613,354.867 35.032,355.583 35.576 C 355.767 35.715,356.104 35.974,356.333 36.151 L 356.750 36.474 356.260 36.987 C 355.991 37.269,355.691 37.501,355.594 37.503 C 355.496 37.504,355.163 37.729,354.852 38.003 C 354.542 38.276,354.186 38.500,354.061 38.500 C 353.936 38.500,353.833 38.561,353.833 38.635 C 353.833 38.709,353.533 38.902,353.166 39.063 C 352.021 39.569,351.656 40.298,352.250 40.893 C 352.387 41.030,352.500 41.305,352.500 41.503 C 352.500 42.137,354.647 44.269,355.525 44.506 C 356.003 44.635,356.530 45.133,356.296 45.234 C 356.255 45.251,355.091 46.139,354.533 46.579 C 354.413 46.673,354.092 46.956,353.818 47.208 C 353.545 47.460,353.249 47.667,353.161 47.667 C 353.072 47.667,353.000 47.742,353.000 47.833 C 353.000 47.925,352.899 48.000,352.775 48.000 C 352.201 48.000,350.478 51.298,350.967 51.461 C 351.077 51.498,351.167 51.733,351.167 51.984 C 351.167 52.446,351.636 54.013,351.820 54.167 C 351.875 54.212,352.126 54.569,352.379 54.958 C 352.631 55.348,352.905 55.667,352.987 55.667 C 353.068 55.667,353.446 55.926,353.826 56.243 C 354.205 56.561,355.019 57.062,355.633 57.357 C 356.247 57.653,356.879 58.003,357.036 58.135 C 357.194 58.267,357.531 58.373,357.786 58.371 C 358.041 58.369,358.421 58.525,358.630 58.718 C 359.003 59.061,359.951 59.324,359.772 59.035 C 359.722 58.955,359.791 58.889,359.924 58.889 C 360.057 58.889,360.167 58.951,360.167 59.028 C 360.167 59.104,360.710 59.166,361.375 59.164 C 362.083 59.163,362.493 59.104,362.365 59.023 C 362.231 58.938,362.435 58.891,362.889 58.900 C 363.408 58.912,363.740 58.819,363.990 58.592 C 364.251 58.356,364.545 58.279,365.062 58.311 C 365.548 58.341,365.844 58.272,365.991 58.094 C 366.110 57.951,366.373 57.833,366.575 57.833 C 366.778 57.833,367.312 57.646,367.763 57.417 C 368.214 57.189,368.696 57.001,368.833 57.000 C 369.116 56.999,371.387 55.552,371.472 55.318 C 371.503 55.235,371.600 55.167,371.688 55.167 C 372.097 55.167,374.825 52.326,374.831 51.893 C 374.832 51.788,374.946 51.659,375.083 51.606 C 375.221 51.554,375.333 51.395,375.333 51.253 C 375.333 50.997,375.375 50.890,375.867 49.898 C 376.240 49.148,376.282 45.971,375.926 45.463 C 375.783 45.259,375.667 44.970,375.667 44.820 C 375.667 44.124,372.896 41.667,372.111 41.667 C 371.889 41.667,371.621 41.563,371.515 41.435 C 371.251 41.116,369.649 40.991,364.833 40.911 C 359.601 40.825,359.049 40.759,358.458 40.146 C 357.876 39.541,357.873 38.950,358.450 38.182 C 359.106 37.307,358.989 37.332,362.390 37.346 C 365.025 37.356,365.576 37.316,365.820 37.096 C 365.979 36.951,366.277 36.833,366.481 36.833 C 367.418 36.833,371.167 34.065,371.167 33.372 C 371.167 33.275,371.223 33.169,371.292 33.139 C 371.527 33.034,372.167 31.684,372.167 31.292 C 372.167 31.076,372.257 30.810,372.367 30.699 C 372.688 30.379,372.757 27.493,372.458 26.903 C 372.322 26.635,372.161 26.141,372.100 25.804 C 372.039 25.467,371.924 25.167,371.843 25.137 C 371.763 25.108,371.672 24.933,371.640 24.750 C 371.587 24.435,371.660 24.420,372.944 24.476 C 374.364 24.538,375.333 24.225,375.333 23.704 C 375.333 23.581,375.393 23.517,375.465 23.562 C 375.538 23.607,375.609 23.490,375.623 23.303 C 375.637 23.116,375.750 22.840,375.873 22.690 C 376.982 21.336,376.665 20.559,374.987 20.521 C 374.271 20.504,373.816 20.582,373.530 20.770 C 373.053 21.082,367.695 21.149,367.507 20.844 C 367.452 20.755,367.095 20.632,366.714 20.572 C 366.332 20.511,365.985 20.368,365.942 20.255 C 365.864 20.053,360.668 19.931,359.958 20.115 M388.595 20.314 C 388.545 20.396,388.222 20.514,387.877 20.578 C 386.996 20.740,385.178 21.333,384.583 21.652 C 383.570 22.195,382.160 23.209,381.763 23.681 C 381.539 23.948,381.275 24.167,381.177 24.167 C 381.080 24.167,381.000 24.279,381.000 24.417 C 381.000 24.554,380.920 24.667,380.821 24.667 C 380.583 24.667,380.167 25.094,380.167 25.339 C 380.167 25.447,379.942 25.819,379.667 26.167 C 379.392 26.514,379.167 26.918,379.167 27.066 C 379.167 27.213,379.100 27.333,379.020 27.333 C 378.822 27.333,378.058 29.807,377.822 31.208 C 377.718 31.826,377.565 32.290,377.483 32.239 C 377.312 32.134,377.278 32.389,377.442 32.553 C 377.577 32.688,377.619 33.824,377.485 33.741 C 377.431 33.707,377.377 33.943,377.365 34.264 C 377.353 34.584,377.411 34.805,377.494 34.754 C 377.577 34.702,377.690 35.018,377.744 35.455 C 377.798 35.892,377.909 36.475,377.991 36.750 C 378.072 37.025,378.189 37.494,378.250 37.792 C 378.310 38.090,378.429 38.333,378.513 38.333 C 378.598 38.333,378.667 38.450,378.667 38.592 C 378.667 39.034,379.299 40.265,379.740 40.684 C 379.972 40.904,380.162 41.212,380.164 41.369 C 380.165 41.526,380.335 41.742,380.542 41.847 C 380.748 41.953,381.067 42.179,381.250 42.350 C 382.523 43.534,383.735 44.280,384.650 44.441 C 384.888 44.483,385.533 44.640,386.083 44.789 C 387.461 45.164,390.488 45.164,391.500 44.789 C 391.912 44.636,392.557 44.400,392.932 44.265 C 393.840 43.938,395.169 43.191,395.848 42.625 C 396.150 42.373,396.455 42.167,396.524 42.167 C 396.750 42.167,398.199 40.605,398.355 40.192 C 398.474 39.880,398.413 39.631,398.080 39.063 C 397.562 38.179,397.640 38.182,396.799 39.015 C 396.092 39.715,393.958 40.833,393.330 40.833 C 393.136 40.833,392.841 40.907,392.674 40.996 C 391.372 41.693,387.616 40.823,386.072 39.468 C 385.375 38.855,384.000 37.109,384.000 36.836 C 384.000 36.731,383.820 36.257,383.600 35.781 C 383.380 35.306,383.155 34.467,383.100 33.917 C 383.045 33.367,382.956 32.685,382.902 32.401 L 382.803 31.886 384.713 31.777 C 385.824 31.713,386.884 31.559,387.246 31.408 C 387.720 31.209,388.647 31.135,391.143 31.095 C 394.236 31.046,395.367 30.942,397.481 30.515 C 397.975 30.415,398.398 30.333,398.421 30.333 C 398.445 30.333,398.590 30.018,398.744 29.632 C 399.981 26.541,396.238 21.286,392.292 20.576 C 391.948 20.514,391.667 20.396,391.667 20.315 C 391.667 20.122,388.714 20.121,388.595 20.314 M70.250 22.097 C 70.617 22.234,71.131 22.378,71.393 22.418 C 71.912 22.495,73.165 23.444,73.627 24.110 C 73.786 24.339,74.110 24.765,74.347 25.055 C 74.727 25.521,75.005 25.990,75.525 27.041 C 75.604 27.201,75.703 27.603,75.746 27.934 C 75.788 28.265,75.909 28.640,76.014 28.766 C 76.438 29.278,76.484 37.145,76.066 37.742 C 75.938 37.925,75.833 38.244,75.833 38.451 C 75.833 39.381,74.352 41.280,73.196 41.832 C 72.768 42.037,72.229 42.298,72.000 42.411 C 71.416 42.700,69.053 42.605,68.417 42.267 C 68.142 42.121,67.821 42.002,67.703 42.001 C 66.035 41.993,62.915 36.845,63.019 34.272 C 63.041 33.735,62.971 33.249,62.851 33.105 C 62.497 32.678,62.808 27.704,63.249 26.750 C 63.375 26.475,63.642 25.891,63.841 25.452 C 64.340 24.350,65.643 22.966,66.438 22.694 C 66.793 22.572,67.308 22.375,67.583 22.256 C 67.858 22.138,68.196 22.000,68.333 21.950 C 68.790 21.785,69.575 21.845,70.250 22.097 M305.367 22.511 C 306.867 22.812,308.735 23.929,309.179 24.789 C 309.310 25.042,309.552 25.351,309.718 25.474 C 310.065 25.733,310.973 27.636,311.113 28.399 C 311.165 28.684,311.311 29.084,311.439 29.288 C 311.800 29.869,311.791 37.369,311.428 37.922 C 311.284 38.142,311.167 38.476,311.167 38.664 C 311.167 38.852,310.979 39.304,310.750 39.667 C 310.521 40.030,310.333 40.371,310.333 40.424 C 310.333 40.679,309.400 41.702,308.860 42.039 C 305.508 44.133,301.288 42.670,299.484 38.789 C 299.304 38.401,299.093 37.971,299.015 37.833 C 298.749 37.364,298.332 35.917,298.333 35.469 C 298.333 35.222,298.215 34.510,298.070 33.885 C 297.659 32.120,297.985 28.185,298.651 26.866 C 298.729 26.711,298.966 26.208,299.177 25.750 C 299.919 24.135,301.342 23.024,303.250 22.569 C 304.355 22.306,304.349 22.306,305.367 22.511 M364.291 22.934 C 364.588 23.108,364.832 23.306,364.832 23.375 C 364.833 23.444,364.946 23.500,365.083 23.500 C 365.221 23.500,365.333 23.590,365.333 23.700 C 365.333 23.811,365.546 24.129,365.806 24.409 C 366.227 24.861,366.833 26.345,366.833 26.922 C 366.833 27.041,366.919 27.167,367.024 27.202 C 367.275 27.286,367.286 30.371,367.037 30.877 C 366.936 31.082,366.695 31.700,366.500 32.250 C 365.876 34.017,364.706 34.945,362.888 35.112 C 362.505 35.147,362.145 35.099,362.086 35.005 C 362.028 34.910,361.779 34.833,361.532 34.832 C 360.548 34.830,358.667 33.035,358.667 32.099 C 358.667 31.953,358.608 31.833,358.536 31.833 C 358.151 31.833,357.853 30.270,357.862 28.296 C 357.871 26.102,358.541 24.066,359.408 23.593 C 359.781 23.390,360.072 23.179,360.434 22.852 C 361.037 22.305,363.295 22.353,364.291 22.934 M336.057 22.857 C 336.592 22.964,337.064 23.139,337.105 23.246 C 337.146 23.353,337.383 23.412,337.631 23.377 C 338.206 23.296,340.075 24.614,340.224 25.205 C 340.357 25.735,340.382 39.345,340.251 39.687 C 340.145 39.963,338.532 40.833,338.127 40.833 C 338.002 40.833,337.821 40.912,337.724 41.009 C 337.575 41.158,335.594 41.547,335.083 41.527 C 332.714 41.434,329.167 39.497,329.167 38.295 C 329.167 38.175,328.953 37.815,328.691 37.496 C 328.429 37.178,328.120 36.617,328.004 36.250 C 327.888 35.883,327.691 35.340,327.566 35.043 C 327.219 34.213,327.222 29.174,327.571 28.474 C 327.715 28.185,327.836 27.829,327.839 27.683 C 327.856 26.897,329.222 24.901,330.194 24.242 C 330.591 23.972,330.977 23.657,331.050 23.542 C 331.123 23.427,331.442 23.333,331.758 23.333 C 332.075 23.333,332.333 23.272,332.333 23.196 C 332.333 22.789,334.659 22.578,336.057 22.857 M389.752 22.836 C 389.809 22.929,389.921 22.966,389.999 22.917 C 390.450 22.639,392.371 24.003,393.025 25.066 C 393.751 26.247,393.836 28.273,393.171 28.538 C 392.534 28.791,387.242 28.923,387.097 28.689 C 387.022 28.568,386.360 28.500,385.250 28.500 C 383.344 28.500,383.257 28.457,383.515 27.644 C 384.011 26.084,384.859 24.794,385.797 24.172 C 386.000 24.037,386.169 23.849,386.172 23.755 C 386.193 23.049,389.378 22.232,389.752 22.836 M126.570 31.601 C 126.799 31.689,126.833 32.190,126.833 35.495 L 126.833 39.288 126.411 39.711 C 123.523 42.598,118.288 41.254,118.034 37.561 C 117.890 35.465,120.236 33.340,123.542 32.570 C 123.794 32.512,124.000 32.403,124.000 32.329 C 124.000 32.254,124.230 32.143,124.511 32.081 C 124.792 32.019,125.224 31.864,125.470 31.735 C 125.965 31.477,126.178 31.451,126.570 31.601 M368.456 45.765 C 368.585 45.894,368.873 46.000,369.095 46.000 C 369.318 46.000,369.500 46.075,369.500 46.167 C 369.500 46.258,369.605 46.333,369.733 46.333 C 370.057 46.333,371.000 47.444,371.000 47.825 C 371.000 47.998,371.094 48.170,371.208 48.209 C 371.477 48.298,371.500 50.958,371.234 51.131 C 371.134 51.197,371.004 51.444,370.946 51.681 C 370.705 52.668,368.480 54.500,367.522 54.500 C 367.349 54.500,367.123 54.602,367.019 54.727 C 366.757 55.043,360.147 55.025,360.042 54.708 C 360.003 54.594,359.821 54.500,359.637 54.500 C 358.664 54.500,356.500 52.500,356.500 51.600 C 356.500 51.292,356.394 50.953,356.264 50.845 C 356.061 50.677,356.061 50.587,356.263 50.200 C 356.392 49.952,356.498 49.586,356.499 49.387 C 356.501 48.534,358.050 46.716,359.378 46.006 C 360.379 45.471,367.961 45.270,368.456 45.765 " stroke="none" fill="#EBEBEB" fill-rule="evenodd"></path></g></svg>